<svg width="118" height="57" viewBox="0 0 118 57" fill="none" xmlns="http://www.w3.org/2000/svg">
<path d="M3.45703 18.5508C4.12109 18.9258 4.79297 19.2656 5.47266 19.5703C6.16016 19.8672 6.87109 20.1211 7.60547 20.332C8.33984 20.5352 9.10938 20.6914 9.91406 20.8008C10.7266 20.9102 11.5898 20.9648 12.5039 20.9648C13.6055 20.9648 14.543 20.8945 15.3164 20.7539C16.0898 20.6055 16.7188 20.4062 17.2031 20.1562C17.6953 19.8984 18.0508 19.5938 18.2695 19.2422C18.4961 18.8906 18.6094 18.5078 18.6094 18.0938C18.6094 17.4297 18.332 16.9062 17.7773 16.5234C17.2227 16.1328 16.3672 15.9375 15.2109 15.9375C14.7031 15.9375 14.168 15.9727 13.6055 16.043C13.043 16.1055 12.4727 16.1758 11.8945 16.2539C11.3242 16.332 10.7578 16.4062 10.1953 16.4766C9.64062 16.5391 9.11719 16.5703 8.625 16.5703C7.80469 16.5703 7.01562 16.4648 6.25781 16.2539C5.50781 16.043 4.83984 15.7266 4.25391 15.3047C3.67578 14.8828 3.21484 14.3555 2.87109 13.7227C2.52734 13.0898 2.35547 12.3516 2.35547 11.5078C2.35547 11.0078 2.42188 10.5117 2.55469 10.0195C2.69531 9.52734 2.91406 9.05859 3.21094 8.61328C3.51562 8.16016 3.90625 7.74219 4.38281 7.35938C4.85938 6.96875 5.43359 6.63281 6.10547 6.35156C6.78516 6.07031 7.56641 5.85156 8.44922 5.69531C9.33984 5.53125 10.3516 5.44922 11.4844 5.44922C12.3047 5.44922 13.1289 5.49609 13.957 5.58984C14.7852 5.67578 15.5898 5.80078 16.3711 5.96484C17.1602 6.12891 17.918 6.32812 18.6445 6.5625C19.3711 6.78906 20.0469 7.04297 20.6719 7.32422L19.043 10.3242C18.5273 10.0977 17.9727 9.89062 17.3789 9.70312C16.7852 9.50781 16.1641 9.33984 15.5156 9.19922C14.8672 9.05859 14.1953 8.94922 13.5 8.87109C12.8125 8.78516 12.1094 8.74219 11.3906 8.74219C10.3672 8.74219 9.52344 8.81641 8.85938 8.96484C8.20312 9.11328 7.67969 9.30469 7.28906 9.53906C6.89844 9.76562 6.625 10.0234 6.46875 10.3125C6.32031 10.5938 6.24609 10.875 6.24609 11.1562C6.24609 11.7031 6.49219 12.1523 6.98438 12.5039C7.47656 12.8477 8.22656 13.0195 9.23438 13.0195C9.64062 13.0195 10.1055 12.9922 10.6289 12.9375C11.1602 12.875 11.7148 12.8086 12.293 12.7383C12.8789 12.668 13.4727 12.6055 14.0742 12.5508C14.6836 12.4883 15.2734 12.457 15.8438 12.457C16.9219 12.457 17.875 12.5781 18.7031 12.8203C19.5391 13.0625 20.2383 13.4102 20.8008 13.8633C21.3633 14.3086 21.7891 14.8516 22.0781 15.4922C22.3672 16.125 22.5117 16.8359 22.5117 17.625C22.5117 18.6797 22.2656 19.6211 21.7734 20.4492C21.2891 21.2695 20.5938 21.9648 19.6875 22.5352C18.7891 23.0977 17.7031 23.5273 16.4297 23.8242C15.1562 24.1133 13.7383 24.2578 12.1758 24.2578C11.1445 24.2578 10.1367 24.1914 9.15234 24.0586C8.16797 23.9336 7.22266 23.7539 6.31641 23.5195C5.41797 23.2773 4.55859 22.9922 3.73828 22.6641C2.92578 22.3281 2.17188 21.9609 1.47656 21.5625L3.45703 18.5508ZM27.5733 5.68359H31.2881L37.9444 12.3633L44.6006 5.68359H48.3155V24H44.6006V10.8281L37.9444 17.2383L31.2881 10.8281V24H27.5733V5.68359ZM60.7364 5.68359H64.6739L73.5333 24H69.6309L68.1661 20.918H57.4669L56.0489 24H52.1348L60.7364 5.68359ZM66.7012 17.8594L62.7403 9.53906L58.8848 17.8594H66.7012ZM77.3409 5.68359H86.6573C88.0636 5.68359 89.2823 5.83203 90.3136 6.12891C91.3448 6.41797 92.2003 6.83984 92.88 7.39453C93.5597 7.94922 94.0636 8.625 94.3917 9.42188C94.7277 10.2188 94.8956 11.1211 94.8956 12.1289C94.8956 12.8086 94.8136 13.457 94.6495 14.0742C94.4855 14.6836 94.2316 15.2461 93.8878 15.7617C93.5519 16.2773 93.1261 16.7383 92.6105 17.1445C92.0948 17.543 91.4894 17.875 90.7941 18.1406L94.7784 24H90.2316L86.7862 18.7969H86.6808L81.0558 18.7852V24H77.3409V5.68359ZM86.7511 15.5742C87.4542 15.5742 88.0675 15.4922 88.5909 15.3281C89.1222 15.1641 89.5636 14.9336 89.9152 14.6367C90.2745 14.3398 90.5402 13.9805 90.712 13.5586C90.8917 13.1289 90.9816 12.6523 90.9816 12.1289C90.9816 11.1055 90.63 10.3164 89.9269 9.76172C89.2237 9.19922 88.1652 8.91797 86.7511 8.91797H81.0558V15.5742H86.7511ZM105.781 8.94141H99.0197V5.68359H116.258V8.94141H109.496V24H105.781V8.94141Z" fill="url(#paint0_linear_26_612)"/>
<path d="M19.1309 24.9883L25.5762 35.9023H25.834L32.3008 24.9883H39.9492L30.1953 41.0156L40.1855 57H32.3867L25.834 46.0859H25.5762L19.002 57H11.2891L21.2793 41.0156L11.4609 24.9883H19.1309ZM52.387 24.9883L58.8323 35.9023H59.0901L65.5569 24.9883H73.2053L63.4514 41.0156L73.4416 57H65.6428L59.0901 46.0859H58.8323L52.258 57H44.5452L54.5354 41.0156L44.717 24.9883H52.387ZM85.643 24.9883L92.0884 35.9023H92.3462L98.813 24.9883H106.461L96.7075 41.0156L106.698 57H98.8989L92.3462 46.0859H92.0884L85.5141 57H77.8012L87.7915 41.0156L77.9731 24.9883H85.643Z" fill="#A067A2"/>
<defs>
<linearGradient id="paint0_linear_26_612" x1="0" y1="15" x2="118" y2="15" gradientUnits="userSpaceOnUse">
<stop stop-color="#A067A2"/>
</linearGradient>
</defs>
</svg>
